HIERARCHY
ROOT ui
{
	 OFFSET 0 0 0
	 CHANNELS 3 XPosition YPosition Z Position
	 EndSite
	 {
	 OFFSET 0 -1 0
	 }
}
ROOT li
{
	 OFFSET 0 0 0
	 CHANNELS 3 XPosition YPosition Z Position
	 EndSite
	 {
	 OFFSET 0 -1 0
	 }
}
ROOT ul
{
	 OFFSET 0 0 0
	 CHANNELS 3 XPosition YPosition Z Position
	 EndSite
	 {
	 OFFSET 0 -1 0
	 }
}
ROOT ll
{
	 OFFSET 0 0 0
	 CHANNELS 3 XPosition YPosition Z Position
	 EndSite
	 {
	 OFFSET 0 -1 0
	 }
}
ROOT tt
{
	 OFFSET 0 0 0
	 CHANNELS 3 XPosition YPosition Z Position
	 EndSite
	 {
	 OFFSET 0 -1 0
	 }
}
ROOT tb
{
	 OFFSET 0 0 0
	 CHANNELS 3 XPosition YPosition Z Position
	 EndSite
	 {
	 OFFSET 0 -1 0
	 }
}
ROOT td
{
	 OFFSET 0 0 0
	 CHANNELS 3 XPosition YPosition Z Position
	 EndSite
	 {
	 OFFSET 0 -1 0
	 }
}
ROOT v
{
	 OFFSET 0 0 0
	 CHANNELS 3 XPosition YPosition Z Position
	 EndSite
	 {
	 OFFSET 0 -1 0
	 }
}
ROOT bn
{
	 OFFSET 0 0 0
	 CHANNELS 3 XPosition YPosition Z Position
	 EndSite
	 {
	 OFFSET 0 -1 0
	 }
}
MOTION
Frames: 32
Frame Time: 0.002
-0.006649137020111084	-0.0014235060214996338	0		0.6101014404296875	-2.7100595703125	0		-0.9896865844726562	0.1103907470703125	0		-0.32496942138671875	-3.2717021484375	0		1.866934814453125	-1.3952701416015625	0		3.180455078125	-0.5620081176757813	0		4.48729736328125	-0.2507072601318359	0		5.9790126953125	0.49195416259765623	0		-0.2750933532714844	5.8642177734375	0		
0.01930252456665039	-0.0017167229652404784	0		0.6329871215820313	-2.717326171875	0		-0.9806713256835937	0.11725084686279297	0		-0.36707290649414065	-3.27738525390625	0		1.847083740234375	-1.373154296875	0		3.1785146484375	-0.5500548706054688	0		4.463259765625	-0.2495579833984375	0		5.96996630859375	0.4919671630859375	0		-0.2771063537597656	5.86717578125	0		
-0.006699183940887451	-0.0015488239526748658	0		0.6060021362304687	-2.715149658203125	0		-0.9766383666992188	0.12115013122558593	0		-0.3041872253417969	-3.290014404296875	0		1.847080322265625	-1.37322021484375	0		3.17372705078125	-0.5260775756835937	0		4.46138232421875	-0.2356077880859375	0		5.9748828125	0.4828548583984375	0		-0.3101678466796875	5.86040673828125	0		
0.01934231948852539	-0.0018514139652252197	0		0.6179918823242188	-2.721326416015625	0		-0.9724884643554688	0.13304373168945313	0		-0.35127548217773436	-3.304662353515625	0		1.850150390625	-1.3703157958984375	0		3.159111083984375	-0.48801251220703123	0		4.44856005859375	-0.22055902099609376	0		5.9709970703125	0.49082403564453125	0		-0.2619779968261719	5.87690625	0		
0.004519382953643799	0.008209490776062011	0		0.6101824951171875	-2.7103271484375	0		-0.9692854614257812	0.14594143676757812	0		-0.3321655578613281	-3.30290625	0		1.848365234375	-1.3563682861328126	0		3.178045654296875	-0.5052496032714844	0		4.460646484375	-0.22073176574707032	0		5.97516357421875	0.499725341796875	0		-0.26289263916015626	5.87784130859375	0		
0.019557029724121093	-0.002000576972961426	0		0.6083013305664062	-2.71238330078125	0		-0.9691580810546875	0.14586216735839844	0		-0.3370715637207031	-3.3079384765625	0		1.8425604248046874	-1.3493848876953125	0		3.16351611328125	-0.46718252563476564	0		4.43605419921875	-0.18957066345214843	0		5.9662900390625	0.4997492980957031	0		-0.24382948303222657	5.8725947265625	0		
-0.006279006004333496	-0.0018466379642486572	0		0.6314046020507813	-2.720664794921875	0		-0.9749508666992187	0.15083212280273436	0		-0.30797457885742185	-3.3172783203125	0		1.828855712890625	-1.335330322265625	0		3.12686181640625	-0.4469158935546875	0		4.44416357421875	-0.19569979858398437	0		5.96237939453125	0.4917349548339844	0		-0.27872900390625	5.868828125	0		
-0.006088909149169922	-0.001928436040878296	0		0.6056392822265625	-2.71751025390625	0		-0.969735107421875	0.15369952392578126	0		-0.33386151123046875	-3.32812890625	0		1.8251435546875	-1.325365478515625	0		3.1042255859375	-0.4277734375	0		4.43554345703125	-0.17467459106445313	0		5.96748583984375	0.4826454467773437	0		-0.2634771423339844	5.87960986328125	0		
-0.0058797550201416015	-0.002012739896774292	0		0.618831787109375	-2.721706298828125	0		-0.9614558715820313	0.16153642272949217	0		-0.3196914367675781	-3.335340576171875	0		1.8304246826171875	-1.3184814453125	0		3.134499267578125	-0.4211037292480469	0		4.42187939453125	-0.16060218811035157	0		5.9717626953125	0.4905682373046875	0		-0.294398681640625	5.86980126953125	0		
0.005430158138275147	0.007802453994750977	0		0.6131909790039063	-2.708734375	0		-0.9571290893554687	0.1734064025878906	0		-0.29839096069335935	-3.329616943359375	0		1.823835205078125	-1.2984912109375	0		3.10417138671875	-0.37088986206054686	0		4.4153076171875	-0.13759129333496095	0		5.97197998046875	0.4905299377441406	0		-0.2631365661621094	5.879435546875	0		
-0.0054322037696838375	-0.0021863679885864257	0		0.6363770141601562	-2.716021484375	0		-0.9728499145507813	0.17945341491699218	0		-0.3041985473632812	-3.336653076171875	0		1.8171353759765625	-1.2915009765625	0		3.080419921875	-0.3687369384765625	0		4.416677734375	-0.12165092468261719	0		5.9722021484375	0.4904930419921875	0		-0.26295980834960936	5.879345703125	0		
-0.005206227779388428	-0.0022750179767608643	0		0.6076272583007812	-2.71584619140625	0		-0.9685899658203125	0.18332069396972656	0		-0.3049619140625	-3.3387353515625	0		1.81143505859375	-1.2845208740234375	0		3.076863037109375	-0.34476455688476565	0		4.39504833984375	-0.10550636291503906	0		5.9683525390625	0.4824913635253906	0		-0.2778814697265625	5.86838916015625	0		
-0.004986148834228515	-0.00236478590965271	0		0.6078695068359375	-2.715930908203125	0		-0.97332666015625	0.18826739501953124	0		-0.29583071899414065	-3.3519072265625	0		1.807763671875	-1.2735606689453125	0		3.090183349609375	-0.33394537353515624	0		4.39933154296875	-0.09859609985351563	0		5.9595693359375	0.4825305480957031	0		-0.3127524719238281	5.86360888671875	0		
-0.004776193141937256	-0.002455195903778076	0		0.5930646362304688	-2.719883056640625	0		-0.9640562133789062	0.1950894317626953	0		-0.2925604248046875	-3.348026611328125	0		1.80318798828125	-1.250593994140625	0		3.05678857421875	-0.2897119750976562	0		4.3847919921875	-0.07052142333984375	0		5.9648466796875	0.49043960571289064	0		-0.29748876953125	5.87438232421875	0		
0.0024825301170349123	0.004392187118530274	0		0.6024387817382812	-2.702050048828125	0		-0.9698160400390625	0.20004623413085937	0		-0.3382333068847656	-3.3357099609375	0		1.7694742431640624	-1.241370361328125	0		3.069013427734375	-0.286888916015625	0		4.37326513671875	-0.03947740936279297	0		5.9650400390625	0.490388427734375	0		-0.29733035278320313	5.87429052734375	0		
0.0026635980606079103	0.004303483009338379	0		0.6125548095703125	-2.711223876953125	0		-0.9156293334960938	0.20047210693359374	0		-0.17622639465332032	-3.358239501953125	0		1.80170556640625	-1.236733642578125	0		3.0555166015625	-0.25083729553222656	0		4.38050830078125	-0.032603889465332034	0		5.96914697265625	0.4822982177734375	0		-0.23007846069335938	5.88560400390625	0		
-0.004235263824462891	-0.002720848083496094	0		0.6007847900390625	-2.705201416015625	0		-0.9894554443359375	0.2020380859375	0		-0.3218635864257812	-3.33703125	0		1.768955810546875	-1.2275189208984374	0		3.029806396484375	-0.2366788330078125	0		4.3648857421875	-0.008528185844421386	0		5.96030810546875	0.4823204345703125	0		-0.27907537841796876	5.8709521484375	0		
-0.004092628002166748	-0.0028055810928344724	0		0.6009383544921875	-2.70528369140625	0		-0.915325439453125	0.20029241943359374	0		-0.17891728210449218	-3.3613857421875	0		1.7621658935546876	-1.2205345458984376	0		3.00811962890625	-0.21755671691894532	0		4.34810009765625	-4.446290135383606E-4	0		5.96044873046875	0.48225982666015627	0		-0.2638683166503906	5.880732421875	0		
-0.003972307920455932	-0.0028879380226135253	0		0.6150309448242187	-2.70948828125	0		-0.98105224609375	0.2177923583984375	0		-0.32969198608398437	-3.35012890625	0		1.7244600830078125	-1.2012750244140624	0		3.02734619140625	-0.20579896545410156	0		4.3424599609375	0.026538511276245118	0		5.96970947265625	0.49811520385742186	0		-0.2958357238769531	5.87293359375	0		
0.007212850093841552	0.006934814929962159	0		0.62019482421875	-2.70261083984375	0		-0.9078876953125	0.22506321716308594	0		-0.17363929748535156	-3.3565927734375	0		1.7636552734375	-1.190697509765625	0		3.017736572265625	-0.1727850341796875	0		4.350884765625	0.06339506149291992	0		5.965734375	0.49008309936523436	0		-0.297732177734375	5.87487158203125	0		
-0.004731850147247314	0.004965940952301026	0		0.5973854370117188	-2.689482421875	0		-0.9227614135742187	0.2311200408935547	0		-0.3323009338378906	-3.3262587890625	0		1.734774169921875	-1.1855146484375	0		2.9878193359375	-0.17159234619140626	0		4.32417138671875	0.08756111145019531	0		5.965806640625	0.4900115966796875	0		-0.263611572265625	5.880494140625	0		
-0.0037554030418395995	-0.0031142070293426515	0		0.60533349609375	-2.700624755859375	0		-0.9277491455078125	0.22709347534179689	0		-0.18948277282714843	-3.35259814453125	0		1.74786474609375	-1.1807027587890624	0		2.988035400390625	-0.1526663360595703	0		4.3143525390625	0.10257526397705079	0		5.9658544921875	0.4899367065429687	0		-0.27864898681640626	5.87055615234375	0		
-0.0037335309982299805	-0.0031825499534606934	0		0.6053507690429687	-2.7006943359375	0		-0.9226915893554688	0.230982177734375	0		-0.3203194885253906	-3.335504150390625	0		1.728894287109375	-1.17960546875	0		2.98616357421875	-0.14072251892089843	0		4.31349853515625	0.11650785064697265	0		5.965876953125	0.4898581237792969	0		-0.2786170654296875	5.87048828125	0		
-0.003736907958984375	-0.003248112916946411	0		0.6093750610351563	-2.696797119140625	0		-0.9226942749023438	0.23091923522949218	0		-0.18441757202148437	-3.34577587890625	0		1.7119326171875	-1.1745252685546874	0		2.96244482421875	-0.10858477020263672	0		4.30275341796875	0.14552655029296874	0		5.95687548828125	0.48985552978515623	0		-0.2635067138671875	5.8812900390625	0		
0.007323975086212158	0.006591063022613525	0		0.6103546142578125	-2.694871337890625	0		-0.9236497802734375	0.23886869812011718	0		-0.31229339599609374	-3.32670166015625	0		1.70710498046875	-1.15155126953125	0		2.92251611328125	-0.09730442810058594	0		4.29691357421875	0.16649920654296874	0		5.965849609375	0.48968923950195314	0		-0.26351089477539064	5.88122802734375	0		
0.0032471630573272705	0.0035669050216674803	0		0.6013707275390625	-2.685854736328125	0		-0.9287342529296875	0.23485826110839844	0		-0.194427734375	-3.334808349609375	0		1.6989600830078124	-1.16154833984375	0		2.953455322265625	-0.0986547088623047	0		4.2700693359375	0.18965634155273436	0		5.9658017578125	0.4895987243652344	0		-0.31267120361328127	5.86560595703125	0		
-0.0038872671127319334	-0.0034278159141540527	0		0.6012810668945312	-2.685915771484375	0		-0.9337605590820313	0.23985124206542968	0		-0.191486083984375	-3.33089111328125	0		1.6988802490234376	-1.161616455078125	0		2.91744580078125	-0.09141094207763673	0		4.272255859375	0.21855287170410156	0		5.965732421875	0.48950335693359376	0		-0.24560211181640626	5.8769541015625	0		
-0.003981583118438721	-0.003483283996582031	0		0.6011661987304687	-2.685975830078125	0		-0.9338529663085937	0.2398029022216797	0		-0.2884952392578125	-3.318082275390625	0		1.6967503662109376	-1.1646671142578124	0		2.897413818359375	-0.08431105041503906	0		4.263341796875	0.23854397583007814	0		5.95664208984375	0.48948226928710936	0		-0.2986670837402344	5.87537255859375	0		
-0.004097033023834229	-0.0035375781059265136	0		0.5511178588867187	-2.67559033203125	0		-0.9239755859375	0.23866786193847656	0		-0.30363079833984374	-3.317000244140625	0		1.6986512451171876	-1.1617545166015626	0		2.917314697265625	-0.08256954956054688	0		4.25347802734375	0.2665395202636719	0		5.974521484375	0.4882143859863281	0		-0.24760728454589845	5.88886572265625	0		
0.006856544971466065	0.006310835838317871	0		0.607944091796875	-2.677157470703125	0		-0.9150372924804687	0.24654360961914062	0		-0.309656982421875	-3.30099755859375	0		1.7015396728515626	-1.1578519287109375	0		2.898402587890625	-0.05748407745361328	0		4.255595703125	0.29442385864257814	0		5.96947216796875	0.497144287109375	0		-0.298804931640625	5.87527099609375	0		
-3.5882800817489625E-4	-6.780689954757691E-4	0		0.6057421264648437	-2.6791982421875	0		-0.9302138061523437	0.2436366729736328	0		-0.179987548828125	-3.3172060546875	0		1.68937353515625	-1.1578160400390625	0		2.859169921875	-0.0662205581665039	0		4.24152685546875	0.3034476623535156	0		5.96525341796875	0.48905963134765623	0		-0.29988116455078123	5.8762314453125	0		
-0.004555331230163574	-0.003692253112792969	0		0.6035202026367188	-2.68123828125	0		-0.9303804931640625	0.24359849548339843	0		-0.3080426635742187	-3.299109619140625	0		1.644155029296875	-1.161485107421875	0		2.8581064453125	-0.05429878616333008	0		4.21961181640625	0.3315389404296875	0		5.96508984375	0.48893313598632815	0		-0.26492349243164065	5.8818720703125	0		
